# xmcd
#
# Track frame offsets:
#	150
#	17115
#	28432
#	41947
#	61142
#	77540
#	93597
#	107829
#	123065
#	139557
#	156070
#	173332
#	188565
#	204502
#
# Disc length: 2890
#
# Revision: 4
# Processed by: cddbd v1.5.1PL0 Copyright (c) Steve Scherf et al.
# Submitted via: audiograbber 1.82.00
# Normalized: r3:DSETVAR1
#
DISCID=ae0b480e
DTITLE=Various Artist - Hot Hits Country Vol. 41
DYEAR=1995
DGENRE=country
TTITLE0=Diamond Rio - Bubba Hype
TTITLE1=Daron Norwood - Bad Dog No Biscuit
TTITLE2=David Ball - Look What Followed Me Home
TTITLE3=Vince Gill - Which Bridge To Cross (Which Bridge To Burn)
TTITLE4=Vince Gill and Doug Stone - Little Houses
TTITLE5=Joe Diffie - So Help Me Girl
TTITLE6=Ricky Van Shelton - Lola's Love
TTITLE7=Rhett Akins - I Brake For Brunettes
TTITLE8=Clay Walker - This Woman And This Man
TTITLE9=Lari White - Thats How You Know(When You're In Love)
TTITLE10=The Mavericks - I Should Have Been True
TTITLE11=Trisha Yearwood - Thinkin About You
TTITLE12=The Tractors - Trying To Get To New Orleans
TTITLE13=Doug Supernaw - What'll You Do About Me
EXTD=
EXTT0=
EXTT1=
EXTT2=
EXTT3=
EXTT4=
EXTT5=
EXTT6=
EXTT7=
EXTT8=
EXTT9=
EXTT10=
EXTT11=
EXTT12=
EXTT13=
PLAYORDER=
